<svg width="96" height="96" xmlns="http://www.w3.org/2000/svg" xmlns:xlink="http://www.w3.org/1999/xlink" xml:space="preserve" overflow="hidden"><g transform="translate(-865 -12)"><path d="M926 42 877 42 877 92 949 92 949 54 926 54ZM924 54 902 54 902 44 924 44ZM912 56 912 66 890 66 890 56ZM902 78 902 68 924 68 924 78ZM900 68 900 78 879 78 879 68ZM912 80 912 90 890 90 890 80ZM914 80 936 80 936 90 914 90ZM926 78 926 68 947 68 947 78ZM914 66 914 56 936 56 936 66ZM879 44 900 44 900 54 879 54ZM888 56 888 66 879 66 879 56ZM879 80 888 80 888 90 879 90ZM938 90 938 80 947 80 947 90ZM947 66 938 66 938 56 947 56Z"/><path d="M950.467 30.747 945.805 19.69 923.69 29.014 928.352 40.071ZM944.738 22.31 947.848 29.682 929.418 37.451 926.31 30.08Z"/></g></svg>