<?xml version="1.0" encoding="utf-8"?>
<!-- Generator: Adobe Illustrator 28.3.0, SVG Export Plug-In . SVG Version: 6.00 Build 0)  -->
<svg version="1.1" id="Layer_1" xmlns="http://www.w3.org/2000/svg" xmlns:xlink="http://www.w3.org/1999/xlink" x="0px" y="0px"
	 viewBox="0 0 24 23.7" style="enable-background:new 0 0 24 23.7;" xml:space="preserve">
<style type="text/css">
	.st0{fill:#FFFFFF;}
</style>
<g transform="translate(-865 -12)">
	<path class="st0" d="M881,19.3h-16v16.4h23.5V23.2H881V19.3z M880.4,23.2h-7.2V20h7.2V23.2z M876.4,23.9v3.3h-7.2v-3.3H876.4z
		 M873.2,31.1v-3.3h7.2v3.3H873.2z M872.5,27.8v3.3h-6.9v-3.3H872.5z M876.4,31.7V35h-7.2v-3.3H876.4z M877.1,31.7h7.2V35h-7.2V31.7
		z M881,31.1v-3.3h6.9v3.3H881z M877.1,27.1v-3.3h7.2v3.3H877.1z M865.7,20h6.9v3.3h-6.9V20z M868.6,23.9v3.3h-2.9v-3.3H868.6z
		 M865.7,31.7h2.9V35h-2.9V31.7z M884.9,35v-3.3h2.9V35H884.9z M887.9,27.1H885v-3.3h2.9V27.1z"/>
	<path class="st0" d="M889,15.6l-1.5-3.6l-7.2,3.1l1.5,3.6L889,15.6z M887.1,12.9l1,2.4l-6,2.5l-1-2.4L887.1,12.9z"/>
</g>
</svg>
