<?xml version="1.0" encoding="UTF-8"?>
<svg id="Layer_1" xmlns="http://www.w3.org/2000/svg" width="24" height="24" viewBox="0 0 22.4 25.21">
	<path d="M21.9,7.64c0-.4-.1-.8-.3-1.1-.2-.3-.4-.6-.8-.8-2.8-1.6-5.7-3.3-8.5-4.9-.8-.5-1.5-.4-2.2,0-1.2.7-6.8,3.9-8.5,4.9-.7.4-1.1,1.1-1.1,1.9v9.9c0,.4.1.8.3,1.1s.4.6.8.8c1.6,1,7.4,4.3,8.5,4.9.8.5,1.5.5,2.2,0,2.8-1.6,5.7-3.3,8.5-4.9.4-.2.6-.5.8-.8.2-.3.3-.7.3-1.1,0-.1,0-6.6,0-9.9" 
		style="fill:none; stroke:#000; stroke-linecap:round; stroke-linejoin:round;"/>
	<path d="M17.3,10.24v1.2h1.2v-1.2h.6v1.2h1.1v.6h-1.2v1.2h1.2v.6h-1.2v1.2h-.6v-1.2h-1.2v1.2h-.6v-1.2h-1.2v-.6h1.2v-1.2h-1.2v-.6h1.2v-1.2h.7ZM18.5,11.94h-1.2v1.2h1.2v-1.2Z" 
		style="fill:none; stroke:#000; stroke-linecap:round; stroke-linejoin:round; stroke-width:.5px;"/>
	<path d="M11.2,4.64c2.9,0,5.5,1.5,6.9,4h0l-3.5,2c-.7-1.2-1.9-1.9-3.4-1.9h0c-2.2-.1-4,1.6-4,3.9,0,.7.2,1.4.5,1.9.7,1.2,1.9,2,3.4,2s2.8-.8,3.5-2h0l3.5,2c-1.4,2.3-3.9,4-6.8,4h-.1c-2.9,0-5.5-1.6-6.9-4-.7-1.2-1.1-2.5-1.1-4,.1-4.4,3.7-7.9,8-7.9h0Z" 
		style="fill:none; stroke:#000; stroke-linecap:round; stroke-linejoin:round;"/>
</svg>