<?xml version="1.0" encoding="utf-8"?>
<!-- Generator: Adobe Illustrator 28.3.0, SVG Export Plug-In . SVG Version: 6.00 Build 0)  -->
<svg version="1.1" id="Layer_1" xmlns="http://www.w3.org/2000/svg" xmlns:xlink="http://www.w3.org/1999/xlink" x="0px" y="0px"
	 viewBox="0 0 22.1 24.8" style="enable-background:new 0 0 22.1 24.8;" xml:space="preserve">
<style type="text/css">
	.st0{fill:none;stroke:#FFFFFF;stroke-width:0.25;stroke-miterlimit:10;}
	.st1{fill:none;}
</style>
<path class="st0" d="M22.1,7.3c0-0.4-0.1-0.8-0.3-1.1c-0.2-0.3-0.4-0.6-0.8-0.8c-2.9-1.7-5.9-3.4-8.8-5.1c-0.8-0.5-1.6-0.4-2.3,0
	c-1.2,0.7-7,4-8.8,5.1C0.4,5.8,0,6.5,0,7.3c0,3.4,0,6.8,0,10.2c0,0.4,0.1,0.8,0.3,1.1c0.2,0.3,0.4,0.6,0.8,0.8
	c1.7,1,7.6,4.4,8.8,5.1c0.8,0.5,1.6,0.5,2.3,0c2.9-1.7,5.9-3.4,8.8-5.1c0.4-0.2,0.6-0.5,0.8-0.8c0.2-0.3,0.3-0.7,0.3-1.1
	C22.1,17.5,22.1,10.7,22.1,7.3"/>
<path class="st1" d="M11.1,12.4L0.3,18.6c0.2,0.3,0.4,0.6,0.8,0.8c1.7,1,7.6,4.4,8.8,5.1c0.8,0.5,1.6,0.5,2.3,0
	c2.9-1.7,5.9-3.4,8.8-5.1c0.4-0.2,0.6-0.5,0.8-0.8L11.1,12.4z"/>
<path class="st1" d="M22.1,7.3c0-0.4-0.1-0.8-0.3-1.1l-10.7,6.2l10.7,6.2c0.2-0.3,0.3-0.7,0.3-1.1C22.1,17.5,22.1,10.7,22.1,7.3"/>
<g>
	<path class="st0" d="M17.4,10v1.2h1.2V10h0.6v1.2h1.2v0.6h-1.2V13h1.2v0.6h-1.2v1.2h-0.6v-1.2h-1.2v1.2h-0.6v-1.2h-1.2V13h1.2v-1.2
		h-1.2v-0.6h1.2V10H17.4z M18.6,11.8h-1.2V13h1.2V11.8z"/>
	<path class="st0" d="M11.1,4.2c3,0,5.7,1.6,7.1,4.1l0,0l-3.6,2.1c-0.7-1.2-2-2-3.5-2l0,0C8.8,8.3,7,10.1,7,12.4
		c0,0.7,0.2,1.4,0.5,2c0.7,1.2,2,2.1,3.5,2.1s2.9-0.8,3.6-2.1l0,0l3.6,2.1c-1.4,2.4-4,4.1-7,4.1h-0.1c-3,0-5.7-1.7-7.1-4.1
		c-0.7-1.2-1.1-2.6-1.1-4.1C2.9,7.9,6.6,4.2,11.1,4.2L11.1,4.2z"/>
</g>
</svg>
