<?xml version="1.0" encoding="utf-8"?>
<!-- Generator: Adobe Illustrator 28.3.0, SVG Export Plug-In . SVG Version: 6.00 Build 0)  -->
<svg version="1.1" id="Layer_1" xmlns="http://www.w3.org/2000/svg" xmlns:xlink="http://www.w3.org/1999/xlink" x="0px" y="0px"
	 viewBox="0 0 24 24" style="enable-background:new 0 0 24 24;" xml:space="preserve">
<style type="text/css">
	.st0{fill:none;stroke:#000000;stroke-linecap:round;stroke-linejoin:round;stroke-miterlimit:3.871;}
	.st1{fill:none;stroke:#000000;stroke-width:0.5;stroke-linecap:round;stroke-linejoin:round;stroke-miterlimit:3.871;}
</style>
<path class="st0" d="M22.7,7.1c0-0.4-0.1-0.8-0.3-1.1c-0.2-0.3-0.4-0.6-0.8-0.8c-2.8-1.6-5.7-3.3-8.5-4.9c-0.8-0.5-1.5-0.4-2.2,0
	C9.7,1,4.1,4.2,2.4,5.2C1.7,5.6,1.3,6.3,1.3,7.1c0,3.3,0,6.6,0,9.9c0,0.4,0.1,0.8,0.3,1.1s0.4,0.6,0.8,0.8c1.6,1,7.4,4.3,8.5,4.9
	c0.8,0.5,1.5,0.5,2.2,0c2.8-1.6,5.7-3.3,8.5-4.9c0.4-0.2,0.6-0.5,0.8-0.8c0.2-0.3,0.3-0.7,0.3-1.1C22.7,16.9,22.7,10.4,22.7,7.1"/>
<path class="st1" d="M18.1,9.7v1.2h1.2V9.7h0.6v1.2H21v0.6h-1.2v1.2H21v0.6h-1.2v1.2h-0.6v-1.2h-1.2v1.2h-0.6v-1.2h-1.2v-0.6h1.2
	v-1.2h-1.2v-0.6h1.2V9.7H18.1z M19.3,11.4h-1.2v1.2h1.2V11.4z"/>
<path class="st0" d="M12,4.1c2.9,0,5.5,1.5,6.9,4l0,0l-3.5,2c-0.7-1.2-1.9-1.9-3.4-1.9l0,0c-2.2-0.1-4,1.6-4,3.9
	c0,0.7,0.2,1.4,0.5,1.9c0.7,1.2,1.9,2,3.4,2s2.8-0.8,3.5-2l0,0l3.5,2c-1.4,2.3-3.9,4-6.8,4H12c-2.9,0-5.5-1.6-6.9-4
	c-0.7-1.2-1.1-2.5-1.1-4C4.1,7.6,7.7,4.1,12,4.1L12,4.1z"/>
</svg>
